REM DIRINDEX 1\2\6,1\2\7,1\2\8,1\2\9,1\3\10,1\3\11,1\4\12,1\4\13,1\4\14,1\5\15,1\5\16,1\5\17
REM DIRNAME folder01,folder02,folder03,folder04,folder05,folder06,folder07,folder08,folder09,folder10,folder11,folder12,folder13,folder14,folder15,folder16,folder17
TITLE ""
FILE "1400_2_sec02_0184_0200.mp3" MP3
  TRACK 01 AUDIO
    TITLE "0:"
    INDEX 01 00:00:00
  TRACK 02 AUDIO
    TITLE "13:cjc029_1938"
    INDEX 01 00:00:17
  TRACK 03 AUDIO
    TITLE "0:"
    INDEX 01 00:01:44
  TRACK 04 AUDIO
    TITLE "14:cjc029_1939"
    INDEX 01 00:01:48
  TRACK 05 AUDIO
    TITLE "0:"
    INDEX 01 00:06:02
  TRACK 06 AUDIO
    TITLE "13:cjc029_1940"
    INDEX 01 00:06:57
  TRACK 07 AUDIO
    TITLE "0:"
    INDEX 01 00:08:17
  TRACK 08 AUDIO
    TITLE "14:cjc029_1941"
    INDEX 01 00:08:24
  TRACK 09 AUDIO
    TITLE "0:"
    INDEX 01 00:09:34
  TRACK 10 AUDIO
    TITLE "13:cjc029_1942"
    INDEX 01 00:10:16
  TRACK 11 AUDIO
    TITLE "0:"
    INDEX 01 00:11:33
  TRACK 12 AUDIO
    TITLE "14:cjc029_1943"
    INDEX 01 00:11:40
  TRACK 13 AUDIO
    TITLE "0:"
    INDEX 01 00:12:56
  TRACK 14 AUDIO
    TITLE "13:cjc029_1944"
    INDEX 01 00:13:41
  TRACK 15 AUDIO
    TITLE "0:"
    INDEX 01 00:14:37
  TRACK 16 AUDIO
    TITLE "14:cjc029_1945"
    INDEX 01 00:14:53
  TRACK 17 AUDIO
    TITLE "0:"
    INDEX 01 00:17:53
  TRACK 18 AUDIO
    TITLE "13:cjc029_1946"
    INDEX 01 00:18:33
  TRACK 19 AUDIO
    TITLE "0:"
    INDEX 01 00:19:46
  TRACK 20 AUDIO
    TITLE "14:cjc029_1947"
    INDEX 01 00:19:52
  TRACK 21 AUDIO
    TITLE "0:"
    INDEX 01 00:22:21
  TRACK 22 AUDIO
    TITLE "13:cjc029_1948"
    INDEX 01 00:23:01
  TRACK 23 AUDIO
    TITLE "0:"
    INDEX 01 00:24:08
  TRACK 24 AUDIO
    TITLE "14:cjc029_1949"
    INDEX 01 00:24:12
  TRACK 25 AUDIO
    TITLE "0:"
    INDEX 01 00:27:43
  TRACK 26 AUDIO
    TITLE "13:cjc029_1950"
    INDEX 01 00:28:25
  TRACK 27 AUDIO
    TITLE "0:"
    INDEX 01 00:29:58
  TRACK 28 AUDIO
    TITLE "14:cjc029_1951"
    INDEX 01 00:29:64
  TRACK 29 AUDIO
    TITLE "0:"
    INDEX 01 00:31:12
  TRACK 30 AUDIO
    TITLE "13:cjc029_1952"
    INDEX 01 00:31:67
  TRACK 31 AUDIO
    TITLE "0:"
    INDEX 01 00:33:05
  TRACK 32 AUDIO
    TITLE "14:cjc029_1953"
    INDEX 01 00:33:11
  TRACK 33 AUDIO
    TITLE "0:"
    INDEX 01 00:34:28
  TRACK 34 AUDIO
    TITLE "13:cjc029_1954"
    INDEX 01 00:35:08
  TRACK 35 AUDIO
    TITLE "0:"
    INDEX 01 00:36:33
  TRACK 36 AUDIO
    TITLE "14:cjc029_1955"
    INDEX 01 00:36:40
  TRACK 37 AUDIO
    TITLE "0:"
    INDEX 01 00:39:15
  TRACK 38 AUDIO
    TITLE "13:cjc029_1956"
    INDEX 01 00:39:70
  TRACK 39 AUDIO
    TITLE "0:"
    INDEX 01 00:40:68
  TRACK 40 AUDIO
    TITLE "14:cjc029_1957"
    INDEX 01 00:40:73
  TRACK 41 AUDIO
    TITLE "0:"
    INDEX 01 00:42:23
  TRACK 42 AUDIO
    TITLE "13:cjc029_1958"
    INDEX 01 00:43:05
  TRACK 43 AUDIO
    TITLE "0:"
    INDEX 01 00:44:09
  TRACK 44 AUDIO
    TITLE "14:cjc029_1959"
    INDEX 01 00:44:12
  TRACK 45 AUDIO
    TITLE "0:"
    INDEX 01 00:47:66
  TRACK 46 AUDIO
    TITLE "13:cjc029_1960"
    INDEX 01 00:48:49
  TRACK 47 AUDIO
    TITLE "0:"
    INDEX 01 00:50:15
  TRACK 48 AUDIO
    TITLE "14:cjc029_1961"
    INDEX 01 00:50:23
  TRACK 49 AUDIO
    TITLE "0:"
    INDEX 01 00:52:65
  TRACK 50 AUDIO
    TITLE "12:cjc029_1962"
    INDEX 01 00:54:38
  TRACK 51 AUDIO
    TITLE "0:"
    INDEX 01 00:55:69
  TRACK 52 AUDIO
    TITLE "13:cjc029_1963"
    INDEX 01 00:56:72
  TRACK 53 AUDIO
    TITLE "0:"
    INDEX 01 00:58:28
  TRACK 54 AUDIO
    TITLE "14:cjc029_1964"
    INDEX 01 00:58:32
  TRACK 55 AUDIO
    TITLE "0:"
    INDEX 01 01:00:53
  TRACK 56 AUDIO
    TITLE "13:cjc029_1965"
    INDEX 01 01:01:36
  TRACK 57 AUDIO
    TITLE "0:"
    INDEX 01 01:02:59
  TRACK 58 AUDIO
    TITLE "14:cjc029_1966"
    INDEX 01 01:02:63
  TRACK 59 AUDIO
    TITLE "0:"
    INDEX 01 01:05:34
  TRACK 60 AUDIO
    TITLE "13:cjc029_1967"
    INDEX 01 01:06:16
  TRACK 61 AUDIO
    TITLE "0:"
    INDEX 01 01:07:35
  TRACK 62 AUDIO
    TITLE "14:cjc029_1968"
    INDEX 01 01:07:39
  TRACK 63 AUDIO
    TITLE "0:"
    INDEX 01 01:09:73
  TRACK 64 AUDIO
    TITLE "13:cjc029_1969"
    INDEX 01 01:10:55
  TRACK 65 AUDIO
    TITLE "0:"
    INDEX 01 01:12:05
  TRACK 66 AUDIO
    TITLE "14:cjc029_1970"
    INDEX 01 01:12:09
  TRACK 67 AUDIO
    TITLE "0:"
    INDEX 01 01:13:53
  TRACK 68 AUDIO
    TITLE "13:cjc029_1971"
    INDEX 01 01:14:33
  TRACK 69 AUDIO
    TITLE "0:"
    INDEX 01 01:15:50
  TRACK 70 AUDIO
    TITLE "14:cjc029_1972"
    INDEX 01 01:15:54
  TRACK 71 AUDIO
    TITLE "0:"
    INDEX 01 01:19:23
